<?xml version="1.0" standalone="no"?>
<!DOCTYPE svg PUBLIC "-//W3C//DTD SVG 20010904//EN"
 "http://www.w3.org/TR/2001/REC-SVG-20010904/DTD/svg10.dtd">
<svg version="1.0" xmlns="http://www.w3.org/2000/svg"
 width="70.000000pt" height="70.000000pt" viewBox="0 0 70.000000 70.000000"
 preserveAspectRatio="xMidYMid meet">
<metadata>
Created by potrace 1.11, written by Peter Selinger 2001-2013
</metadata>
<g transform="translate(0.000000,70.000000) scale(0.100000,-0.100000)"
fill="#000000" stroke="none">
<path d="M280 600 c-13 -12 -38 -28 -55 -36 -17 -8 -36 -23 -43 -35 -28 -44 6
-33 85 27 52 40 65 41 129 13 57 -24 71 -41 44 -51 -29 -11 -24 -28 8 -28 19
0 35 9 49 28 20 28 20 28 1 52 -29 36 -58 47 -129 49 -53 2 -69 -2 -89 -19z"/>
<path d="M133 389 c-9 -9 -13 -50 -13 -130 0 -97 3 -118 16 -123 9 -3 63 -6
120 -6 l104 0 -1 128 -1 127 -19 -60 c-11 -33 -24 -81 -30 -107 -18 -79 -29
-54 -29 63 0 111 0 111 -22 105 -13 -3 -26 -6 -30 -6 -4 0 -10 -17 -13 -37
-11 -62 -46 -173 -56 -173 -4 0 -10 52 -11 116 -2 92 -5 113 -15 103z"/>
<path d="M567 227 c-10 -15 -24 -27 -32 -27 -8 0 -15 -4 -15 -10 0 -16 26 -12
50 8 13 10 21 26 19 37 -4 17 -6 16 -22 -8z"/>
<path d="M390 160 c0 -5 5 -10 11 -10 5 0 7 5 4 10 -3 6 -8 10 -11 10 -2 0 -4
-4 -4 -10z"/>
</g>
</svg>
